<svg width="423" height="419" viewBox="0 0 423 419" fill="none" xmlns="http://www.w3.org/2000/svg">
<circle cx="229.5" cy="225.5" r="193.5" fill="#F4900C"/>
<path d="M0.999999 54C3.5 41.5 16.5 44 26.5 47C69.5 59.9 104 77.5 118.5 88.5C122.5 86.5 131 83.2 133 86C135.5 89.5 139 94 127 109C117.4 121 106.667 121.333 102.5 120C100.5 118.5 98.5 111 102.5 103C68.5 77 37 73.5 26.5 70.5C16 67.5 -1.5 66.5 0.999999 54Z" fill="#662113"/>
<path d="M137.5 7C170.7 -6.6 224 3.33333 246.5 10C210 50 200 56 172.5 69C145 82 90.5 75.5 84 74C78.8 72.8 78.5 64.5 79 60.5C84.6667 48.3333 104.3 20.6 137.5 7Z" fill="#5C913B"/>
</svg>
